<svg width="1024" height="1024" viewBox="0 0 1024 1024" xmlns="http://www.w3.org/2000/svg">
  <!-- Background gradient -->
  <defs>
    <linearGradient id="bg" x1="0%" y1="0%" x2="100%" y2="100%">
      <stop offset="0%" style="stop-color:#1e293b;stop-opacity:1" />
      <stop offset="100%" style="stop-color:#0f172a;stop-opacity:1" />
    </linearGradient>
    <radialGradient id="shine">
      <stop offset="0%" style="stop-color:#ffffff;stop-opacity:0.3" />
      <stop offset="100%" style="stop-color:#ffffff;stop-opacity:0" />
    </radialGradient>
  </defs>
  
  <!-- Background -->
  <rect width="1024" height="1024" fill="url(#bg)" rx="180"/>
  
  <!-- Gems/Minerals -->
  <!-- Purple gem top left -->
  <g transform="translate(220, 250)">
    <polygon points="0,-40 30,0 0,40 -30,0" fill="#8b5cf6"/>
    <polygon points="0,-40 30,0 0,10 -30,0" fill="#a78bfa" opacity="0.7"/>
  </g>
  
  <!-- Green gem top right -->
  <g transform="translate(780, 280)">
    <polygon points="0,-35 25,0 0,35 -25,0" fill="#10b981"/>
    <polygon points="0,-35 25,0 0,10 -25,0" fill="#34d399" opacity="0.7"/>
  </g>
  
  <!-- Orange gem bottom left -->
  <g transform="translate(200, 760)">
    <polygon points="0,-38 28,0 0,38 -28,0" fill="#f59e0b"/>
    <polygon points="0,-38 28,0 0,12 -28,0" fill="#fbbf24" opacity="0.7"/>
  </g>
  
  <!-- Blue gem bottom right -->
  <g transform="translate(820, 720)">
    <polygon points="0,-42 32,0 0,42 -32,0" fill="#3b82f6"/>
    <polygon points="0,-42 32,0 0,12 -32,0" fill="#60a5fa" opacity="0.7"/>
  </g>
  
  <!-- Pickaxe -->
  <!-- Handle -->
  <rect x="470" y="550" width="84" height="320" fill="#92400e" rx="10"/>
  <rect x="485" y="550" width="54" height="320" fill="#b45309" rx="8"/>
  
  <!-- Metal head base -->
  <rect x="380" y="420" width="264" height="110" fill="#475569" rx="8"/>
  
  <!-- Metal head highlight -->
  <rect x="395" y="430" width="234" height="50" fill="#64748b" rx="5"/>
  
  <!-- Left point -->
  <polygon points="380,475 280,500 320,530 380,530" fill="#475569"/>
  <polygon points="380,475 320,490 340,510 380,500" fill="#64748b"/>
  
  <!-- Right point -->
  <polygon points="644,475 744,500 704,530 644,530" fill="#475569"/>
  <polygon points="644,475 704,490 684,510 644,500" fill="#64748b"/>
  
  <!-- Shine effect on metal -->
  <ellipse cx="500" cy="460" rx="60" ry="25" fill="white" opacity="0.3"/>
  
  <!-- Background shine circle -->
  <circle cx="380" cy="320" r="150" fill="url(#shine)"/>
</svg>
